<svg xmlns="http://www.w3.org/2000/svg" width="1200" height="1200" xmlns:v="https://vecta.io/nano"><path d="M0 0h1200v1200H0z" fill="#fff" fill-opacity="0" pointer-events="none"/><path d="M599.791-.209c331.2 0 600 268.8 600 600s-268.8 600-600 600-600-268.8-600-600 268.8-600 600-600z" fill="#ff8a88"/><path d="M419.389 943.215H312.3a10.71 10.71 0 0 1-10.708-10.708V825.414a10.71 10.71 0 0 1 10.708-10.708h107.088c5.914 0 10.713 4.794 10.713 10.708v107.093c0 5.914-4.798 10.708-10.713 10.708zm-10.708-21.42v-85.673h-85.673v85.673zm10.708-192.764H312.3a10.71 10.71 0 0 1-10.708-10.708V611.231a10.71 10.71 0 0 1 10.708-10.708h107.088c5.914 0 10.713 4.794 10.713 10.708v107.093c0 5.914-4.798 10.708-10.713 10.708zm-10.708-21.42v-85.673h-85.673v85.673zm503.334-428.365c29.563 0 53.539 23.982 53.539 53.539v128.525c0 29.563-23.986 53.539-53.539 53.539H312.311c-29.576 0-53.568-23.982-53.568-53.539V332.786c0-29.568 23.995-53.539 53.568-53.539zm-599.703 21.42c-17.748 0-32.147 14.386-32.147 32.119v128.525c0 17.724 14.4 32.119 32.147 32.119h417.635V300.667zm439.047 0V493.43h160.644c17.724 0 32.119-14.386 32.119-32.119V332.786c0-17.729-14.39-32.119-32.119-32.119zm120.937 114.661l-24.551-24.556-24.556 24.556a10.71 10.71 0 0 1-15.144-15.144l32.129-32.129a10.71 10.71 0 0 1 15.144 0l32.124 32.129a10.71 10.71 0 0 1-15.144 15.144zm-517.17-7.572a10.71 10.71 0 0 1-10.708-10.708 10.71 10.71 0 0 1 10.708-10.708h193.013a10.71 10.71 0 0 1 10.708 10.708 10.71 10.71 0 0 1-10.708 10.708zm149.926 267.732c-5.914 0-10.708-4.798-10.708-10.713a10.71 10.71 0 0 1 10.708-10.708h267.732a10.71 10.71 0 0 1 10.708 10.708c0 5.914-4.794 10.713-10.708 10.713zm0 214.176c-5.914 0-10.708-4.798-10.708-10.713a10.71 10.71 0 0 1 10.708-10.708h160.632c5.914 0 10.713 4.794 10.713 10.708a10.72 10.72 0 0 1-10.713 10.713z" fill-rule="evenodd" fill="#2b314c" stroke="#2b314c" stroke-width="11.857"/></svg>